<svg xmlns="http://www.w3.org/2000/svg" version="1.1" width="102px" height="102px" style="shape-rendering:geometricPrecision; text-rendering:geometricPrecision; image-rendering:optimizeQuality; fill-rule:evenodd; clip-rule:evenodd" xmlns:xlink="http://www.w3.org/1999/xlink">
<g><path style="opacity:0.977" fill="#010101" d="M 40.5,-0.5 C 47.1667,-0.5 53.8333,-0.5 60.5,-0.5C 81.8333,5.5 95.5,19.1667 101.5,40.5C 101.5,47.1667 101.5,53.8333 101.5,60.5C 95.5,81.8333 81.8333,95.5 60.5,101.5C 53.8333,101.5 47.1667,101.5 40.5,101.5C 19.1667,95.5 5.5,81.8333 -0.5,60.5C -0.5,53.8333 -0.5,47.1667 -0.5,40.5C 5.5,19.1667 19.1667,5.5 40.5,-0.5 Z"/></g>
<g><path style="opacity:1" fill="#e7e7e7" d="M 49.5,73.5 C 42.6866,74.4912 35.6866,74.8245 28.5,74.5C 27.6706,66.3434 27.1706,58.0101 27,49.5C 24.9153,47.8308 23.7486,45.6641 23.5,43C 26.1177,36.8157 28.1177,30.4823 29.5,24C 43.5,23.3333 57.5,23.3333 71.5,24C 72.8973,30.4769 74.8973,36.8102 77.5,43C 77.0203,47.3109 74.687,49.8109 70.5,50.5C 67.9209,50.1405 65.4209,49.4738 63,48.5C 58.6667,51.1667 54.3333,51.1667 50,48.5C 45.7554,51.3494 41.7554,51.0161 38,47.5C 36.005,49.747 33.505,50.747 30.5,50.5C 30.5,57.5 30.5,64.5 30.5,71.5C 37.2547,70.8771 43.588,71.5437 49.5,73.5 Z"/></g>
<g><path style="opacity:1" fill="#000000" d="M 31.5,26.5 C 44.1667,26.5 56.8333,26.5 69.5,26.5C 69.5,27.5 69.5,28.5 69.5,29.5C 56.8333,29.5 44.1667,29.5 31.5,29.5C 31.5,28.5 31.5,27.5 31.5,26.5 Z"/></g>
<g><path style="opacity:1" fill="#101010" d="M 30.5,32.5 C 43.85,32.1675 57.1833,32.5008 70.5,33.5C 71.5,35.5 72.5,37.5 73.5,39.5C 58.1667,40.8333 42.8333,40.8333 27.5,39.5C 28.7878,37.2612 29.7878,34.9279 30.5,32.5 Z"/></g>
<g><path style="opacity:1" fill="#181818" d="M 26.5,44.5 C 29.6868,43.1944 33.0202,43.1944 36.5,44.5C 33.2025,48.4906 29.8692,48.4906 26.5,44.5 Z"/></g>
<g><path style="opacity:1" fill="#131313" d="M 39.5,43.5 C 42.5719,43.1826 45.5719,43.5159 48.5,44.5C 46.4384,47.8462 43.7718,48.3462 40.5,46C 39.7476,45.3292 39.4142,44.4959 39.5,43.5 Z"/></g>
<g><path style="opacity:1" fill="#141414" d="M 52.5,43.5 C 55.5719,43.1826 58.5719,43.5159 61.5,44.5C 57.8,48.8145 54.8,48.4812 52.5,43.5 Z"/></g>
<g><path style="opacity:1" fill="#141414" d="M 64.5,43.5 C 67.8499,43.335 71.1832,43.5017 74.5,44C 70.73,48.7066 67.3967,48.5399 64.5,43.5 Z"/></g>
<g><path style="opacity:1" fill="#f0f0f0" d="M 61.5,52.5 C 74.4917,51.6595 80.6583,57.6595 80,70.5C 75.5695,81.2944 68.0695,84.1277 57.5,79C 51.0281,73.0957 49.8614,66.2623 54,58.5C 56.4784,56.3606 58.9784,54.3606 61.5,52.5 Z"/></g>
<g><path style="opacity:1" fill="#0c0c0c" d="M 63.5,57.5 C 67.2193,58.8389 70.7193,60.1722 74,61.5C 74.3534,62.6716 74.1868,63.8382 73.5,65C 76.5711,68.5782 75.9044,70.7449 71.5,71.5C 71.347,76.1584 69.5137,77.1584 66,74.5C 62.4863,77.1584 60.653,76.1584 60.5,71.5C 56.3293,70.4863 55.6627,68.3196 58.5,65C 57.2563,61.0798 58.5896,59.5798 62.5,60.5C 63.3857,59.675 63.719,58.675 63.5,57.5 Z"/></g>
<g><path style="opacity:1" fill="#ededed" d="M 64.5,63.5 C 69.3276,63.3852 70.6609,65.5519 68.5,70C 62.6815,70.5262 61.3481,68.3595 64.5,63.5 Z"/></g>
<g><path style="opacity:1" fill="#3f3f3f" d="M 49.5,73.5 C 50.0431,73.56 50.3764,73.8933 50.5,74.5C 43.0102,75.8194 35.6769,75.8194 28.5,74.5C 35.6866,74.8245 42.6866,74.4912 49.5,73.5 Z"/></g>
</svg>
